HIERARCHY
ROOT Hips
{
 OFFSET 0.000000 0.000000 0.000000
 CHANNELS 6 Xposition Yposition Zposition Yrotation Xrotation Zrotation
 JOINT Chest
 {
  OFFSET 0.000000 8.841881 -6.654894
  CHANNELS 3 Yrotation Xrotation Zrotation
  JOINT Chest2
  {
   OFFSET 0.000000 7.072353 0.028336
   CHANNELS 3 Yrotation Xrotation Zrotation
   JOINT Chest3
   {
    OFFSET 0.000000 10.125157 -0.014641
    CHANNELS 3 Yrotation Xrotation Zrotation
    JOINT Chest4
    {
     OFFSET 0.000000 10.441534 -0.016102
     CHANNELS 3 Yrotation Xrotation Zrotation
     JOINT Neck
     {
      OFFSET 0.000000 16.849355 0.013667
      CHANNELS 3 Yrotation Xrotation Zrotation
      JOINT Head
      {
       OFFSET 0.000000 10.107081 0.000000
       CHANNELS 3 Yrotation Xrotation Zrotation
       End Site
       {
        OFFSET 0.000000 15.162723 0.000000
       }
      }
     }
     JOINT RightCollar
     {
      OFFSET -2.775264 10.553866 0.006834
      CHANNELS 3 Yrotation Xrotation Zrotation
      JOINT RightShoulder
      {
       OFFSET -16.020521 0.000000 0.000000
       CHANNELS 3 Yrotation Xrotation Zrotation
       JOINT RightElbow
       {
        OFFSET -23.902096 0.000000 0.000000
        CHANNELS 3 Yrotation Xrotation Zrotation
        JOINT RightWrist
        {
         OFFSET -23.631001 0.000000 -0.000566
         CHANNELS 3 Yrotation Xrotation Zrotation
         End Site
         {
          OFFSET -18.828190 0.690323 0.103033
         }
        }
       }
      }
     }
     JOINT LeftCollar
     {
      OFFSET 2.775264 10.553866 0.006834
      CHANNELS 3 Yrotation Xrotation Zrotation
      JOINT LeftShoulder
      {
       OFFSET 16.020521 0.000000 0.000000
       CHANNELS 3 Yrotation Xrotation Zrotation
       JOINT LeftElbow
       {
        OFFSET 23.902096 0.000000 0.000000
        CHANNELS 3 Yrotation Xrotation Zrotation
        JOINT LeftWrist
        {
         OFFSET 23.631001 0.000000 -0.000566
         CHANNELS 3 Yrotation Xrotation Zrotation
         End Site
         {
          OFFSET 18.828190 0.690323 0.103033
         }
        }
       }
      }
     }
    }
   }
  }
 }
 JOINT RightHip
 {
  OFFSET -9.646452 0.046004 -0.007286
  CHANNELS 3 Yrotation Xrotation Zrotation
  JOINT RightKnee
  {
   OFFSET 0.000000 -48.923989 0.009793
   CHANNELS 3 Yrotation Xrotation Zrotation
   JOINT RightAnkle
   {
    OFFSET 0.000000 -37.831989 0.111451
    CHANNELS 3 Yrotation Xrotation Zrotation
    JOINT RightToe
    {
     OFFSET 0.000000 -8.084683 17.519885
     CHANNELS 3 Yrotation Xrotation Zrotation
     End Site
     {
      OFFSET 0.000000 -1.047441 5.170765
     }
    }
   }
  }
 }
 JOINT LeftHip
 {
  OFFSET 9.646452 0.044016 -0.006971
  CHANNELS 3 Yrotation Xrotation Zrotation
  JOINT LeftKnee
  {
   OFFSET 0.000000 -48.923989 0.009793
   CHANNELS 3 Yrotation Xrotation Zrotation
   JOINT LeftAnkle
   {
    OFFSET 0.000000 -37.831989 0.111451
    CHANNELS 3 Yrotation Xrotation Zrotation
    JOINT LeftToe
    {
     OFFSET 0.000000 -8.084683 17.519885
     CHANNELS 3 Yrotation Xrotation Zrotation
     End Site
     {
      OFFSET 0.000000 -1.047441 5.170765
     }
    }
   }
  }
 }
}
MOTION
Frames: 12
Frame Time: 0.004167
-24.473094 86.362122 181.247000 -14.275823 -5.707912 -13.054129 6.285859 6.859875 4.448407 2.519698 -10.097855 1.961157 1.739018 1.912316 1.738053 0.573664 10.006066 0.496134 -2.005042 9.919795 -0.050751 -3.800522 18.416424 -0.384496 -2.933263 -1.151505 4.997029 -11.049123 -3.759241 67.262386 49.331219 -6.032600 26.349490 3.342895 4.281457 -8.323635 2.605929 -2.646668 -4.565019 10.564803 3.936548 -61.686438 -17.440175 1.552646 -6.695078 -4.192367 13.525837 1.099324 -6.969807 -1.745372 -14.605125 -172.851834 64.556287 -177.351688 -15.621164 8.108739 -7.777578 0.000000 -0.000000 -0.000000 8.494198 -36.049425 5.372317 2.520906 26.744231 1.718918 2.327789 2.758110 3.896144 0.000000 0.000000 -0.000000
-24.607143 85.876836 182.158825 -13.949209 -6.110119 -13.029625 6.157780 6.997614 4.372419 2.466367 -9.996660 1.925921 1.702473 1.962837 1.704605 0.561548 10.001293 0.486424 -2.008735 10.043462 -0.023922 -3.805653 18.646809 -0.338732 -2.803060 -1.100548 5.072464 -11.098443 -3.503408 67.118243 49.275090 -6.231374 26.102067 3.331212 4.267938 -8.220900 2.266057 -2.729475 -4.611907 10.383102 3.591212 -61.673983 -17.355627 1.441938 -6.765319 -4.281833 13.482826 1.120235 -6.934309 -2.102584 -14.921762 -172.999654 63.715563 -177.817372 -15.542921 7.842882 -8.089983 0.000000 0.000000 0.000000 8.563214 -36.224071 5.144248 1.874807 27.885084 1.760800 2.178309 5.422269 4.610426 0.000000 -0.000000 -0.000000
-24.736185 85.423730 183.043653 -13.622653 -6.515959 -12.983291 6.026220 7.153737 4.287338 2.412578 -9.873022 1.886117 1.665617 2.021710 1.667675 0.549189 9.992020 0.475667 -2.007303 10.144559 0.001963 -3.800841 18.835287 -0.293324 -2.686352 -1.044175 5.136999 -11.097751 -3.275979 67.026728 49.171691 -6.456363 25.816141 3.324952 4.246584 -8.138443 1.942540 -2.807698 -4.663918 10.164919 3.219399 -61.697671 -17.278446 1.315578 -6.817520 -4.362537 13.434693 1.147194 -6.868924 -2.512808 -15.210839 -173.118335 62.984729 -178.249779 -15.509579 7.547652 -8.388212 -0.000000 0.000000 -0.000000 8.588684 -36.369913 4.915026 1.286564 29.149268 1.779980 2.143123 7.460018 5.238237 0.000000 -0.000000 0.000000
-24.859720 85.009835 183.897797 -13.300573 -6.926986 -12.912277 5.892378 7.330938 4.192932 2.358952 -9.723572 1.841576 1.628881 2.090187 1.627207 0.536703 9.977573 0.463842 -1.999709 10.218565 0.026451 -3.784119 18.973442 -0.248761 -2.587422 -0.981317 5.186856 -11.039199 -3.082913 66.998552 49.011377 -6.713246 25.487526 3.325034 4.214852 -8.082644 1.641841 -2.880296 -4.721175 9.905762 2.818066 -61.763539 -17.209867 1.171215 -6.846551 -4.432533 13.381086 1.181782 -6.770960 -2.983143 -15.468724 -173.205338 62.373664 -178.648309 -15.533624 7.216339 -8.670943 0.000000 0.000000 -0.000000 8.553077 -36.478558 4.693645 0.783180 30.553037 1.777697 2.228064 8.720830 5.770000 -0.000000 -0.000000 0.000000
-24.980113 84.628334 184.723524 -12.966159 -7.347808 -12.809382 5.746578 7.536467 4.080348 2.301683 -9.543004 1.788341 1.589719 2.170869 1.579814 0.523245 9.957609 0.449965 -1.984368 10.261557 0.053071 -3.751879 19.054071 -0.197930 -2.499210 -0.905111 5.228357 -10.903332 -2.930259 67.044347 48.786361 -7.016768 25.084107 3.329720 4.174594 -8.056554 1.354910 -2.948300 -4.789144 9.609722 2.363045 -61.868041 -17.120279 1.003037 -6.840133 -4.493470 13.321029 1.230811 -6.629303 -3.512707 -15.699601 -173.295504 61.851843 -179.039641 -15.591661 6.842826 -8.954789 -0.000000 0.000000 0.000000 8.455199 -36.569329 4.463114 0.316322 32.166072 1.736822 2.453040 9.206970 6.223899 0.000000 -0.000000 -0.000000
-25.099412 84.267215 185.526305 -12.604293 -7.780073 -12.673407 5.581187 7.771873 3.944022 2.237602 -9.331627 1.724132 1.545995 2.264041 1.523439 0.508114 9.932646 0.433452 -1.961541 10.275938 0.084555 -3.704236 19.081701 -0.135741 -2.412359 -0.812249 5.269449 -10.685975 -2.816103 67.159117 48.503599 -7.372246 24.591282 3.336826 4.129579 -8.055064 1.068885 -3.013704 -4.870693 9.284540 1.841823 -62.000496 -16.989967 0.810117 -6.795788 -4.548625 13.254525 1.296997 -6.439082 -4.092628 -15.911015 -173.421717 61.388654 -179.446685 -15.653060 6.430964 -9.251660 0.000000 -0.000000 0.000000 8.314485 -36.664122 4.201816 -0.178101 34.014553 1.638986 2.813276 9.082016 6.627928 -0.000000 0.000000 0.000000
-25.216647 83.925725 186.307249 -12.221927 -8.220863 -12.510375 5.400392 8.031282 3.788693 2.168231 -9.094509 1.651301 1.498721 2.367469 1.460025 0.491641 9.903296 0.414890 -1.932970 10.266679 0.119241 -3.644849 19.065511 -0.065770 -2.327752 -0.706962 5.308789 -10.402171 -2.734644 67.329793 48.175776 -7.771426 24.031122 3.346682 4.080090 -8.072264 0.784494 -3.076938 -4.962096 8.931345 1.268697 -62.156305 -16.835018 0.597514 -6.723029 -4.598499 13.182621 1.375773 -6.207076 -4.718171 -16.104428 -173.578039 60.993900 -179.863070 -15.719546 5.988954 -9.553676 0.000000 -0.000000 0.000000 8.144008 -36.758592 3.911951 -0.696761 36.049370 1.484677 3.277990 8.437756 6.982224 -0.000000 0.000000 0.000000
-25.330846 83.603105 187.067465 -11.825932 -8.667186 -12.326187 5.208377 8.308830 3.619167 2.095072 -8.836723 1.572208 1.448900 2.478910 1.391513 0.474161 9.870169 0.394860 -1.900371 10.238760 0.155464 -3.577340 19.014696 0.008388 -2.246333 -0.593461 5.345047 -10.067033 -2.679962 67.543209 47.815330 -8.205594 23.425435 3.359615 4.026443 -8.102242 0.502471 -3.138424 -5.059709 8.551350 0.657965 -62.331224 -16.671418 0.370333 -6.631329 -4.643567 13.106268 1.462592 -5.940232 -5.384786 -16.281258 -173.758259 60.677465 179.717458 -15.793073 5.524982 -9.853182 0.000000 0.000000 0.000000 7.956464 -36.848325 3.596102 -1.236452 38.221368 1.275571 3.817912 7.366240 7.286455 -0.000000 0.000000 -0.000000
-25.441038 83.298600 187.808062 -11.423094 -9.115944 -12.126613 5.009350 8.598678 3.440328 2.019623 -8.563351 1.489210 1.397540 2.596116 1.319838 0.456021 9.833873 0.373941 -1.865439 10.197171 0.191565 -3.505276 18.938473 0.083148 -2.169112 -0.475945 5.376916 -9.695765 -2.645880 67.786284 47.434254 -8.665326 22.795703 3.375911 3.969015 -8.139102 0.223570 -3.198573 -5.159968 8.145875 0.023919 -62.521441 -16.515010 0.133803 -6.530093 -4.684276 13.026334 1.552929 -5.645697 -6.088127 -16.442812 -173.955924 60.449289 179.300959 -15.875903 5.047178 -10.142741 -0.000000 0.000000 0.000000 7.764105 -36.928765 3.257292 -1.793390 40.481437 1.015263 4.405416 5.959721 7.541353 -0.000000 -0.000000 -0.000000
-25.546251 83.011455 188.530152 -11.020109 -9.563928 -11.917287 4.807573 8.895022 3.257137 1.943397 -8.279479 1.404658 1.345655 2.716838 1.246930 0.437578 9.795014 0.352707 -1.829835 10.146913 0.225895 -3.432149 18.846084 0.154954 -2.097165 -0.358598 5.403114 -9.303677 -2.625853 68.046149 47.043945 -9.140311 22.163035 3.395781 3.908261 -8.176963 -0.051419 -3.257783 -5.259391 7.716366 -0.619161 -62.723635 -16.381464 -0.106685 -6.428642 -4.721032 12.943602 1.642282 -5.330831 -6.824055 -16.590247 -174.164371 60.319367 178.893221 -15.970682 4.563577 -10.415128 0.000000 0.000000 -0.000000 7.578684 -36.995163 2.899021 -2.362325 42.780611 0.710097 5.014376 4.310568 7.749729 -0.000000 -0.000000 -0.000000
-25.645515 82.740913 189.234842 -10.623586 -10.007804 -11.703711 4.607378 9.192096 3.074642 1.867932 -7.990198 1.320900 1.294281 2.838821 1.174711 0.419204 9.754197 0.331724 -1.795193 10.092997 0.256816 -3.361370 18.746791 0.220288 -2.031631 -0.245591 5.422386 -8.906194 -2.612915 68.310250 46.655100 -9.619270 21.548145 3.419351 3.844730 -8.209979 -0.321662 -3.316438 -5.354580 7.264408 -1.257023 -62.935030 -16.286273 -0.345574 -6.336187 -4.754208 12.858767 1.726180 -5.003238 -7.588648 -16.724517 -174.376774 60.297726 178.499702 -16.080519 4.082099 -10.663338 -0.000000 0.000000 -0.000000 7.411412 -37.042553 2.525294 -2.935468 45.070168 0.370130 5.619745 2.511177 7.917077 -0.000000 -0.000000 -0.000000
-25.737858 82.486217 189.923244 -10.240047 -10.444115 -11.491259 4.413184 9.484181 2.897969 1.794801 -7.700596 1.240273 1.244475 2.959810 1.105093 0.401283 9.712025 0.311547 -1.763118 10.040443 0.282707 -3.296275 18.649882 0.275678 -1.973704 -0.141089 5.433505 -8.518850 -2.599659 68.566396 46.277677 -10.089936 20.971347 3.446655 3.779064 -8.232337 -0.586282 -3.374911 -5.442214 6.791738 -1.875457 -63.153431 -16.244759 -0.577171 -6.261822 -4.784150 12.772423 1.800174 -4.670777 -8.378201 -16.846344 -174.586198 60.394419 178.125478 -16.209057 3.610524 -10.880603 -0.000000 0.000000 -0.000000 7.272941 -37.065733 2.140630 -3.501260 47.301724 0.010200 6.196970 0.653861 8.051865 -0.000000 0.000000 -0.000000
